<svg xmlns="http://www.w3.org/2000/svg" viewBox="0 0 1024 576" role="img" aria-labelledby="title description">
	<title id="title">Melvor Multiplayer 2026 Public Test listing banner</title>
	<desc id="description">The public-test multiplayer mark beside the Melvor Multiplayer 2026 title.</desc>
	<defs>
		<linearGradient id="background" x1="0" y1="0" x2="1" y2="1">
			<stop offset="0" stop-color="#111c35"/>
			<stop offset="1" stop-color="#07101f"/>
		</linearGradient>
		<filter id="shadow" x="-20%" y="-20%" width="140%" height="160%">
			<feDropShadow dx="0" dy="12" stdDeviation="14" flood-color="#000" flood-opacity=".45"/>
		</filter>
	</defs>

	<rect width="1024" height="576" fill="url(#background)"/>
	<rect x="20" y="20" width="984" height="536" rx="44" fill="none" stroke="#2d4167" stroke-width="6"/>
	<circle cx="282" cy="288" r="226" fill="#182845" stroke="#314c77" stroke-width="6"/>

	<g transform="translate(78 74) scale(.52)" filter="url(#shadow)">
		<path fill="#17d873" d="M456.3 201.5c0 73.2-41 137-101.5 170.3-28.5 15.7-61.3 24.6-96.2 24.6s-67.7-8.9-96.2-24.6c-16.1-8.8-30.7-19.8-43.6-32.5-35.8-35.3-57.9-84-57.9-137.8C60.8 93.9 149.3 6.7 258.5 6.7s197.8 87.2 197.8 194.8z"/>
		<path fill="#17d873" d="M505.7 506.5v182H11.4v-182c0-74.4 60.3-134.8 134.8-134.8h224.7c74.4.1 134.8 60.4 134.8 134.8z"/>
		<path fill="#1fca71" d="M505.7 506.5v182H258.5V6.7c109.2 0 197.7 87.2 197.7 194.8 0 73.2-41 137-101.5 170.3h16.2c74.4 0 134.8 60.3 134.8 134.7z"/>
		<path fill="#179cd8" d="M738.7 312c0 73.2-41 137-101.5 170.3-28.5 15.7-61.3 24.6-96.2 24.6-34.9 0-67.7-8.9-96.2-24.6-16.1-8.8-30.7-19.8-43.6-32.5-35.8-35.3-57.9-84-57.9-137.8 0-107.6 88.5-194.8 197.7-194.8S738.7 204.4 738.7 312z"/>
		<path fill="#179cd8" d="M788.1 617v182H293.8V617c0-74.4 60.3-134.8 134.8-134.8h224.7c74.5.1 134.8 60.4 134.8 134.8z"/>
		<path fill="#1892ca" d="M788.1 617v182H541V117.2c109.2 0 197.7 87.2 197.7 194.8 0 73.2-41 137-101.5 170.3h16.2c74.4 0 134.7 60.3 134.7 134.7z"/>
	</g>

	<g fill="#f4f7ff" font-family="Helvetica">
		<text x="550" y="178" font-size="58" font-weight="800">MELVOR</text>
		<text x="550" y="238" font-size="50" font-weight="800">MULTIPLAYER</text>
		<text x="550" y="302" fill="#89a5cf" font-size="44" font-weight="700" letter-spacing="8">2026</text>
	</g>

	<g filter="url(#shadow)">
		<rect x="546" y="354" width="412" height="112" rx="24" fill="#f5b82e"/>
		<rect x="558" y="366" width="388" height="88" rx="16" fill="none" stroke="#fff0b5" stroke-width="4"/>
		<text x="752" y="428" text-anchor="middle" fill="#10192b"
			font-family="Helvetica" font-size="46" font-weight="900" letter-spacing="3">PUBLIC TEST</text>
	</g>
</svg>
